HIERARCHY
ROOT hip
{
  OFFSET 0 0 0
  CHANNELS 6 Xposition Yposition Zposition Zrotation Yrotation Xrotation
  JOINT abdomen
  {
    OFFSET 0 20.6881 -0.73152
    CHANNELS 3 Zrotation Xrotation Yrotation
    JOINT chest
    {
      OFFSET 0 11.7043 -0.48768
      CHANNELS 3 Zrotation Xrotation Yrotation
      JOINT neck
      {
        OFFSET 0 22.1894 -2.19456
        CHANNELS 3 Zrotation Xrotation Yrotation
        JOINT head
        {
          OFFSET -0.24384 7.07133 1.2192
          CHANNELS 3 Zrotation Xrotation Yrotation
          JOINT leftEye
          {
            OFFSET 4.14528 8.04674 8.04672
            CHANNELS 3 Zrotation Xrotation Yrotation
            End Site
            {
              OFFSET 1 0 0
            }
          }
          JOINT rightEye
          {
            OFFSET -3.6576 8.04674 8.04672
            CHANNELS 3 Zrotation Xrotation Yrotation
            End Site
            {
              OFFSET 1 0 0
            }
          }
        }
      }
      JOINT rCollar
      {
        OFFSET -2.68224 19.2634 -4.8768
        CHANNELS 3 Zrotation Xrotation Yrotation
        JOINT rShldr
        {
          OFFSET -8.77824 -1.95073 1.46304
          CHANNELS 3 Zrotation Xrotation Yrotation
          JOINT rForeArm
          {
            OFFSET -28.1742 -1.7115 0.48768
            CHANNELS 3 Zrotation Xrotation Yrotation
            JOINT rHand
            {
              OFFSET -22.5879 0.773209 7.07136
              CHANNELS 3 Zrotation Xrotation Yrotation
              JOINT rThumb1
              {
                OFFSET -1.2192 -0.487915 3.41376
                CHANNELS 3 Zrotation Xrotation Yrotation
                JOINT rThumb2
                {
                  OFFSET -3.37035 -0.52449 3.41376
                  CHANNELS 3 Zrotation Xrotation Yrotation
                  End Site
                  {
                    OFFSET -1.78271 -1.18214 1.43049
                  }
                }
              }
              JOINT rIndex1
              {
                OFFSET -7.75947 0.938293 5.60832
                CHANNELS 3 Zrotation Xrotation Yrotation
                JOINT rIndex2
                {
                  OFFSET -2.54057 -0.884171 1.56538
                  CHANNELS 3 Zrotation Xrotation Yrotation
                  End Site
                  {
                    OFFSET -1.62519 -0.234802 1.16502
                  }
                }
              }
              JOINT rMid1
              {
                OFFSET -8.24714 1.18213 3.41376
                CHANNELS 3 Zrotation Xrotation Yrotation
                JOINT rMid2
                {
                  OFFSET -3.10165 -0.590103 1.0647
                  CHANNELS 3 Zrotation Xrotation Yrotation
                  End Site
                  {
                    OFFSET -2.48547 -0.328903 0.83742
                  }
                }
              }
              JOINT rRing1
              {
                OFFSET -8.82822 0.546677 1.51678
                CHANNELS 3 Zrotation Xrotation Yrotation
                JOINT rRing2
                {
                  OFFSET -2.60934 -0.819778 -0.0198488
                  CHANNELS 3 Zrotation Xrotation Yrotation
                  End Site
                  {
                    OFFSET -2.33842 -0.294052 0.168128
                  }
                }
              }
              JOINT rPinky1
              {
                OFFSET -8.27202 -0.0477905 -0.4584
                CHANNELS 3 Zrotation Xrotation Yrotation
                JOINT rPinky2
                {
                  OFFSET -1.82734 -0.647385 -0.700984
                  CHANNELS 3 Zrotation Xrotation Yrotation
                  End Site
                  {
                    OFFSET -1.69225 -0.51767 -0.607171
                  }
                }
              }
            }
          }
        }
      }
      JOINT lCollar
      {
        OFFSET 2.68224 19.2634 -4.8768
        CHANNELS 3 Zrotation Xrotation Yrotation
        JOINT lShldr
        {
          OFFSET 8.77824 -1.95073 1.46304
          CHANNELS 3 Zrotation Xrotation Yrotation
          JOINT lForeArm
          {
            OFFSET 28.1742 -1.7115 0.48768
            CHANNELS 3 Zrotation Xrotation Yrotation
            JOINT lHand
            {
              OFFSET 22.5879 0.773209 7.07136
              CHANNELS 3 Zrotation Xrotation Yrotation
              JOINT lThumb1
              {
                OFFSET 1.2192 -0.487915 3.41376
                CHANNELS 3 Zrotation Xrotation Yrotation
                JOINT lThumb2
                {
                  OFFSET 3.37035 -0.52449 3.41376
                  CHANNELS 3 Zrotation Xrotation Yrotation
                  End Site
                  {
                    OFFSET 1.78271 -1.18214 1.43049
                  }
                }
              }
              JOINT lIndex1
              {
                OFFSET 7.75947 0.938293 5.60832
                CHANNELS 3 Zrotation Xrotation Yrotation
                JOINT lIndex2
                {
                  OFFSET 2.54057 -0.884171 1.56538
                  CHANNELS 3 Zrotation Xrotation Yrotation
                  End Site
                  {
                    OFFSET 1.62519 -0.234802 1.16502
                  }
                }
              }
              JOINT lMid1
              {
                OFFSET 8.24714 1.18213 3.41376
                CHANNELS 3 Zrotation Xrotation Yrotation
                JOINT lMid2
                {
                  OFFSET 3.10165 -0.590103 1.0647
                  CHANNELS 3 Zrotation Xrotation Yrotation
                  End Site
                  {
                    OFFSET 2.48547 -0.328903 0.83742
                  }
                }
              }
              JOINT lRing1
              {
                OFFSET 8.82822 0.546677 1.51678
                CHANNELS 3 Zrotation Xrotation Yrotation
                JOINT lRing2
                {
                  OFFSET 2.60934 -0.819778 -0.0198488
                  CHANNELS 3 Zrotation Xrotation Yrotation
                  End Site
                  {
                    OFFSET 2.33842 -0.294052 0.168128
                  }
                }
              }
              JOINT lPinky1
              {
                OFFSET 8.27202 -0.0477905 -0.4584
                CHANNELS 3 Zrotation Xrotation Yrotation
                JOINT lPinky2
                {
                  OFFSET 1.82734 -0.647385 -0.700984
                  CHANNELS 3 Zrotation Xrotation Yrotation
                  End Site
                  {
                    OFFSET 1.69225 -0.51767 -0.607171
                  }
                }
              }
            }
          }
        }
      }
    }
  }
  JOINT rButtock
  {
    OFFSET -8.77824 4.35084 1.2192
    CHANNELS 3 Zrotation Xrotation Yrotation
    JOINT rThigh
    {
      OFFSET 0 -1.70687 -2.19456
      CHANNELS 3 Zrotation Xrotation Yrotation
      JOINT rShin
      {
        OFFSET 0 -36.8199 0.73152
        CHANNELS 3 Zrotation Xrotation Yrotation
        JOINT rFoot
        {
          OFFSET 0.73152 -45.1104 -5.12064
          CHANNELS 3 Zrotation Xrotation Yrotation
          End Site
          {
            OFFSET -1.1221 -3.69964 12.103
          }
        }
      }
    }
  }
  JOINT lButtock
  {
    OFFSET 8.77824 4.35084 1.2192
    CHANNELS 3 Zrotation Xrotation Yrotation
    JOINT lThigh
    {
      OFFSET 0 -1.70687 -2.19456
      CHANNELS 3 Zrotation Xrotation Yrotation
      JOINT lShin
      {
        OFFSET 0 -36.8199 0.73152
        CHANNELS 3 Zrotation Xrotation Yrotation
        JOINT lFoot
        {
          OFFSET -0.73152 -45.1104 -5.12064
          CHANNELS 3 Zrotation Xrotation Yrotation
          End Site
          {
            OFFSET 1.1221 -3.69964 12.103
          }
        }
      }
    }
  }
}
MOTION
Frames:	4
Frame Time:	0.00833333
30.1079 45.1334 -44.7171 86.9142 -79.3176 -70.8632 -9.8884 78.3671 9.41995 -1.47586 -9.95949 -1.40676 -2.29089 3.52172 36.8222 172.572 38.1353 -101.3 -0.0 0.0 0.0 -0.0 0.0 0.0 8.03723e-14 3.4876e-13 -1.35074e-13 27.838 -1.07357 19.8518 -25.8941 -23.1661 56.3312 -0.429328 -18.3032 -2.66454 2.30578e-09 6.32686e-10 -6.5882e-10 3.99416e-09 1.08685e-09 -1.11474e-09 2.30578e-09 6.32684e-10 -6.58823e-10 7.73091 5.47488 0.417314 2.30578e-09 6.32682e-10 -6.58823e-10 2.90554 0.965183 0.102902 2.30578e-09 6.32683e-10 -6.58822e-10 10.2786 0.731801 0.0259123 2.30577e-09 6.32683e-10 -6.58814e-10 2.22167 -0.733487 -0.20892 8.02509e-14 3.48774e-13 -1.35223e-13 -80.5006 13.9749 8.2573 20.8795 -52.6379 -112.034 0.0104515 -2.9176 0.4104 1.67735e-09 4.12954e-10 2.14438e-09 2.89657e-09 7.23548e-10 3.71736e-09 1.67734e-09 4.12953e-10 2.14439e-09 -7.73091 5.47488 -0.417314 1.67735e-09 4.1295e-10 2.14438e-09 -2.90554 0.965183 -0.102902 1.67734e-09 4.12951e-10 2.14438e-09 -10.2786 0.731801 -0.0259123 1.67735e-09 4.12952e-10 2.14437e-09 -2.22167 -0.733487 0.20892 -2.03217e-16 0.0 -3.88251e-19 -115.62 -63.1324 -111.857 -177.49 62.4011 -178.701 -5.81445 -18.6905 -15.1282 2.03217e-16 0.0 3.88251e-19 91.8362 -50.6967 70.9291 174.932 76.9545 -176.782 -5.82243 -5.97256 -16.9395
30.0926 44.9358 -43.5333 86.012 -79.3506 -69.718 -7.70753 78.4687 7.64377 -1.57172 -10.0126 -1.40217 -2.41428 3.19678 36.4934 172.41 38.2085 -101.494 -0.0 0.0 0.0 -0.0 0.0 0.0 8.60387e-14 6.17333e-13 -8.06592e-14 27.357 -2.1573 20.1819 -25.9797 -23.3825 56.6891 -0.39433 -17.5872 -2.55304 2.23101e-09 8.02124e-10 -1.01579e-09 3.86912e-09 1.38197e-09 -1.73138e-09 2.23101e-09 8.02123e-10 -1.01579e-09 7.73091 5.47488 0.417314 2.23101e-09 8.02121e-10 -1.01579e-09 2.90554 0.965183 0.102902 2.23102e-09 8.02122e-10 -1.01579e-09 10.2786 0.731801 0.0259123 2.23101e-09 8.02122e-10 -1.01578e-09 2.22167 -0.733487 -0.20892 8.59218e-14 6.17347e-13 -8.08013e-14 -80.8284 14.0958 8.46689 20.8632 -52.6515 -112.075 0.00386153 -2.11886 0.29788 1.64385e-09 1.29195e-10 1.74187e-09 2.84128e-09 2.29458e-10 3.01927e-09 1.64384e-09 1.29195e-10 1.74187e-09 -7.73091 5.47488 -0.417314 1.64384e-09 1.29193e-10 1.74186e-09 -2.90554 0.965183 -0.102902 1.64384e-09 1.29194e-10 1.74186e-09 -10.2786 0.731801 -0.0259123 1.64385e-09 1.29195e-10 1.74185e-09 -2.22167 -0.733487 0.20892 -2.03217e-16 0.0 -3.88251e-19 -116.809 -62.6971 -111.326 -177.554 62.4247 -178.394 -5.42862 -18.5694 -14.999 2.03217e-16 0.0 3.88251e-19 90.9758 -51.3765 67.884 173.657 80.182 -175.549 -5.76746 -6.63933 -16.0903
30.0678 44.7271 -42.3706 84.3993 -79.4399 -67.8251 -4.23052 78.4767 4.61572 -1.68934 -10.0587 -1.43277 -2.54918 2.87749 36.2013 172.267 38.2858 -101.732 -0.0 0.0 0.0 -0.0 0.0 0.0 7.50654e-14 7.09695e-13 -7.78366e-15 26.9814 -3.3113 20.6604 -26.0507 -23.5652 56.9833 -0.357451 -16.7883 -2.42976 1.50472e-09 6.78143e-10 -9.90041e-10 2.61212e-09 1.17024e-09 -1.69425e-09 1.50472e-09 6.78142e-10 -9.90046e-10 7.73091 5.47488 0.417314 1.50472e-09 6.7814e-10 -9.9004e-10 2.90554 0.965183 0.102902 1.50472e-09 6.78142e-10 -9.9004e-10 10.2786 0.731801 0.0259123 1.50471e-09 6.78141e-10 -9.90028e-10 2.22167 -0.733487 -0.20892 7.49722e-14 7.09708e-13 -7.92653e-15 -81.2242 14.2229 8.69491 20.8696 -52.6461 -112.059 -0.000756486 -1.14352 0.160674 1.15477e-09 -1.8056e-10 8.50284e-10 1.99844e-09 -3.11462e-10 1.4734e-09 1.15476e-09 -1.80559e-10 8.50287e-10 -7.73091 5.47488 -0.417314 1.15476e-09 -1.80561e-10 8.50279e-10 -2.90554 0.965183 -0.102902 1.15476e-09 -1.80558e-10 8.50279e-10 -10.2786 0.731801 -0.0259123 1.15477e-09 -1.80558e-10 8.5027e-10 -2.22167 -0.733487 0.20892 -2.03217e-16 0.0 -3.88251e-19 -117.954 -61.916 -110.921 -177.614 62.3848 -178.102 -4.94073 -18.2926 -14.7476 2.03217e-16 0.0 3.88251e-19 90.0462 -52.2699 64.8817 170.749 83.6946 -172.683 -5.78861 -6.90111 -15.9372
30.0376 44.505 -41.2367 82.2433 -79.5679 -65.3498 -0.385123 78.3925 1.21478 -1.80817 -10.0998 -1.47773 -2.66087 2.56434 35.9569 172.138 38.3701 -101.965 -0.0 0.0 0.0 -0.0 0.0 0.0 6.15663e-14 7.34562e-13 5.70939e-14 26.7144 -4.43277 21.2258 -26.1133 -23.7287 57.2422 -0.328696 -16.1142 -2.32679 6.62299e-10 4.55847e-10 -7.54536e-10 1.15144e-09 7.87999e-10 -1.29614e-09 6.62304e-10 4.55846e-10 -7.54542e-10 7.73091 5.47488 0.417314 6.623e-10 4.55845e-10 -7.54533e-10 2.90554 0.965183 0.102902 6.62306e-10 4.55847e-10 -7.54534e-10 10.2786 0.731801 0.0259123 6.62296e-10 4.55847e-10 -7.54521e-10 2.22167 -0.733487 -0.20892 6.1504e-14 7.34573e-13 5.69471e-14 -81.6334 14.374 8.93556 20.8895 -52.6293 -112.009 -0.00149917 -0.149796 0.0210164 5.91859e-10 -4.24265e-10 -4.18961e-11 1.02757e-09 -7.38074e-10 -7.37454e-11 5.91852e-10 -4.24263e-10 -4.18929e-11 -7.73091 5.47488 -0.417314 5.91854e-10 -4.24263e-10 -4.19022e-11 -2.90554 0.965183 -0.102902 5.91851e-10 -4.24259e-10 -4.19021e-11 -10.2786 0.731801 -0.0259123 5.91858e-10 -4.2426e-10 -4.19118e-11 -2.22167 -0.733487 0.20892 -2.03217e-16 0.0 -3.88251e-19 -118.959 -61.0026 -110.51 -177.666 62.3462 -177.838 -4.43824 -18.0114 -14.4431 2.03217e-16 0.0 3.88251e-19 89.0553 -53.1499 61.9724 159.806 87.2753 -161.776 -5.85024 -6.8465 -16.239
